#!OML:ASF H:\ManfredETheater\Project 1\Capture day 1\Session 1\subject.ASF
:FULLY-SPECIFIED
:DEGREES
210
root -7.55509 17.5307 -23.2478 -179.457 -37.961 -177.33
lowerback 11.1495 -0.187702 -2.00968
upperback -1.91939 -0.43374 1.33216
thorax -8.29107 -0.0803746 2.63089
lowerneck -16.2869 -5.51206 -7.07445
upperneck 11.2306 -6.74405 5.9824
head 6.5248 -3.08721 2.35459
rclavicle -7.75944e-014 -1.02374e-014
rhumerus -33.1699 -0.0545615 -85.1443
rradius 64.4318
rwrist -6.26743
rhand -29.7556 1.13005
rfingers 7.12502
rthumb -3.08143 -28.8274
lclavicle -7.75944e-014 -1.02374e-014
lhumerus -43.2637 1.6496 83.4944
lradius 48.2473
lwrist -11.7485
lhand -26.7438 -4.74993
lfingers 7.12502
lthumb -0.172629 25.2297
rfemur -17.814 0.832785 21.8834
rtibia 42.627
rfoot -21.4694 -12.4325
rtoes -18.6872
lfemur -25.3352 -4.8637 -18.7835
ltibia 50.5048
lfoot -23.4936 -3.89259
ltoes 9.18854
211
root -7.60383 17.5551 -23.3091 -179.057 -37.6987 -177.524
lowerback 10.9848 -0.164008 -2.13346
upperback -1.9776 -0.417483 1.31173
thorax -8.25958 -0.0665652 2.67455
lowerneck -16.3205 -5.45876 -7.02618
upperneck 11.2711 -6.68169 5.97485
head 6.5373 -3.05498 2.35078
rclavicle 7.62743e-014 4.67144e-015
rhumerus -33.3753 -0.0564541 -85.4979
rradius 64.0904
rwrist -6.07251
rhand -29.7419 1.18589
rfingers 7.12502
rthumb -3.0682 -28.7718
lclavicle 7.62743e-014 4.67144e-015
lhumerus -43.4693 2.42593 82.7633
lradius 46.7112
lwrist -12.7358
lhand -26.4096 -4.91495
lfingers 7.12502
lthumb 0.150166 25.0647
rfemur -17.6059 0.954313 21.702
rtibia 42.1532
rfoot -21.4974 -12.2512
rtoes -18.7311
lfemur -25.047 -4.8201 -18.9556
ltibia 50.025
lfoot -23.5617 -3.64424
ltoes 9.07701
212
root -7.651 17.5776 -23.3698 -178.653 -37.4396 -177.716
lowerback 10.8282 -0.145358 -2.26803
upperback -2.03519 -0.409168 1.2935
thorax -8.23154 -0.0560205 2.72825
lowerneck -16.3522 -5.39865 -6.95367
upperneck 11.29 -6.61136 5.94656
head 6.54048 -3.01962 2.33747
rclavicle -1.69433e-014 -4.62174e-015
rhumerus -33.5918 -0.0164111 -85.8565
rradius 63.7917
rwrist -5.86089
rhand -29.7017 1.2557
rfingers 7.12502
rthumb -3.02936 -28.7025
lclavicle -1.69433e-014 -4.62174e-015
lhumerus -43.7346 3.11161 82.0794
lradius 45.3664
lwrist -13.704
lhand -26.2143 -5.27953
lfingers 7.12502
lthumb 0.338799 24.6999
rfemur -17.4329 1.07506 21.5225
rtibia 41.7211
rfoot -21.5289 -12.0821
rtoes -18.799
lfemur -24.7925 -4.76227 -19.1226
ltibia 49.578
lfoot -23.6298 -3.42479
ltoes 8.972
213
root -7.69689 17.5983 -23.4297 -178.255 -37.1776 -177.895
lowerback 10.6767 -0.127112 -2.39968
upperback -2.09014 -0.400653 1.27761
thorax -8.20361 -0.0455351 2.78284
lowerneck -16.3749 -5.33372 -6.85423
upperneck 11.2788 -6.53558 5.89224
head 6.53032 -2.9828 2.3124
rclavicle 7.86395e-014 4.77083e-015
rhumerus -33.8158 0.0555152 -86.2128
rradius 63.5287
rwrist -5.63878
rhand -29.6347 1.352
rfingers 7.12502
rthumb -2.96464 -28.6071
lclavicle 7.86395e-014 4.77083e-015
lhumerus -44.0519 3.67212 81.467
lradius 44.2167
lwrist -14.5783
lhand -26.1367 -5.67699
lfingers 7.12502
lthumb 0.413737 24.3023
rfemur -17.2885 1.1958 21.3531
rtibia 41.3217
rfoot -21.562 -11.9202
rtoes -18.8799
lfemur -24.5676 -4.67995 -19.2774
ltibia 49.1631
lfoot -23.7021 -3.23525
ltoes 8.88051
214
root -7.74144 17.6174 -23.489 -177.867 -36.9108 -178.051
lowerback 10.5284 -0.108303 -2.52169
upperback -2.14151 -0.38953 1.26674
thorax -8.17382 -0.0342519 2.83692
lowerneck -16.3909 -5.26567 -6.7389
upperneck 11.2425 -6.45642 5.82514
head 6.50992 -2.94489 2.28127
rclavicle 4.55015e-014 2.19409e-014
rhumerus -34.05 0.152821 -86.5636
rradius 63.3043
rwrist -5.39749
rhand -29.5385 1.46104
rfingers 7.12502
rthumb -2.8718 -28.4994
lclavicle 4.55015e-014 2.19409e-014
lhumerus -44.4133 4.07922 80.9517
lradius 43.26
lwrist -15.2801
lhand -26.1607 -6.02564
lfingers 7.12502
lthumb 0.390584 23.9537
rfemur -17.1686 1.31719 21.2036
rtibia 40.9473
rfoot -21.5937 -11.7661
rtoes -18.9657
lfemur -24.3707 -4.57186 -19.4085
ltibia 48.7784
lfoot -23.7777 -3.09219
ltoes 8.88101
215
root -7.78478 17.635 -23.5479 -177.487 -36.6361 -178.193
lowerback 10.3813 -0.0876824 -2.64206
upperback -2.18891 -0.37535 1.25835
thorax -8.14078 -0.0216454 2.89221
lowerneck -16.3988 -5.1923 -6.61959
upperneck 11.1888 -6.3721 5.76604
head 6.48255 -2.90393 2.25287
rclavicle -6.1353e-014 -1.92573e-014
rhumerus -34.2934 0.271775 -86.9088
rradius 63.1077
rwrist -5.11594
rhand -29.4214 1.58043
rfingers 7.12502
rthumb -2.75864 -28.3815
lclavicle -6.1353e-014 -1.92573e-014
lhumerus -44.8155 4.30467 80.5536
lradius 42.505
lwrist -15.7382
lhand -26.2115 -6.14951
lfingers 7.12502
lthumb 0.341468 23.83
rfemur -17.0674 1.43909 21.067
rtibia 40.594
rfoot -21.6266 -11.617
rtoes -19.0378
lfemur -24.1937 -4.43678 -19.5247
ltibia 48.4197
lfoot -23.8612 -2.98785
ltoes 8.96945
216
root -7.82694 17.6512 -23.6064 -177.125 -36.3551 -178.313
lowerback 10.2416 -0.063046 -2.74947
upperback -2.23103 -0.353798 1.25264
thorax -8.10682 -0.00614028 2.94186
lowerneck -16.4006 -5.11958 -6.50157
upperneck 11.1208 -6.28979 5.71709
head 6.4503 -2.86339 2.22785
rclavicle 1.73781e-015 -7.81472e-015
rhumerus -34.5464 0.401776 -87.2464
rradius 62.9335
rwrist -4.80323
rhand -29.2967 1.71514
rfingers 7.12502
rthumb -2.63827 -28.2483
lclavicle 1.73781e-015 -7.81472e-015
lhumerus -45.1972 4.45187 80.2316
lradius 41.8363
lwrist -16.0568
lhand -26.263 -6.15362
lfingers 7.12502
lthumb 0.291729 23.8259
rfemur -16.977 1.55956 20.9518
rtibia 40.2592
rfoot -21.6607 -11.4767
rtoes -19.1101
lfemur -24.0285 -4.27614 -19.6192
ltibia 48.0831
lfoot -23.9555 -2.918
ltoes 9.12312
217
root -7.86798 17.666 -23.6643 -176.771 -36.0677 -178.424
lowerback 10.1055 -0.0355751 -2.85529
upperback -2.26751 -0.328043 1.24729
thorax -8.06932 0.0111748 2.99034
lowerneck -16.3986 -5.04704 -6.38741
upperneck 11.042 -6.20861 5.68019
head 6.41473 -2.82274 2.20726
rclavicle -1.63803e-014 -4.11236e-015
rhumerus -34.8019 0.548743 -87.5771
rradius 62.7707
rwrist -4.46243
rhand -29.17 1.85262
rfingers 7.12502
rthumb -2.51586 -28.1123
lclavicle -1.63803e-014 -4.11236e-015
lhumerus -45.5719 4.4787 80.0103
lradius 41.2859
lwrist -16.1766
lhand -26.2897 -5.98099
lfingers 7.12502
lthumb 0.265912 23.9986
rfemur -16.9003 1.67815 20.8454
rtibia 39.9439
rfoot -21.6987 -11.3426
rtoes -19.165
lfemur -23.8739 -4.09499 -19.7048
ltibia 47.7639
lfoot -24.0611 -2.87524
ltoes 9.33282
218
root -7.90808 17.6794 -23.7218 -176.426 -35.7777 -178.528
lowerback 9.9764 -0.00602489 -2.9563
upperback -2.29955 -0.298955 1.2397
thorax -8.03137 0.0297338 3.0333
lowerneck -16.3934 -4.97862 -6.29869
upperneck 10.964 -6.13312 5.6787
head 6.38138 -2.78324 2.2015
rclavicle -7.68101e-014 1.19271e-015
rhumerus -35.0612 0.706759 -87.9013
rradius 62.6133
rwrist -4.10407
rhand -29.0459 1.98553
rfingers 7.12502
rthumb -2.39608 -27.9808
lclavicle -7.68101e-014 1.19271e-015
lhumerus -45.8983 4.47902 79.8423
lradius 40.7629
lwrist -16.2177
lhand -26.2669 -5.70387
lfingers 7.12502
lthumb 0.288005 24.2757
rfemur -16.8326 1.78822 20.7446
rtibia 39.6491
rfoot -21.7451 -11.2114
rtoes -19.1981
lfemur -23.7227 -3.89797 -19.7857
ltibia 47.458
lfoot -24.179 -2.85257
ltoes 9.578
219
root -7.94705 17.6914 -23.7789 -176.088 -35.4903 -178.63
lowerback 9.85964 0.0264044 -3.05478
upperback -2.32646 -0.265855 1.23078
thorax -7.99544 0.0500457 3.07292
lowerneck -16.3861 -4.91983 -6.22538
upperneck 10.8808 -6.06933 5.69177
head 6.34782 -2.74898 2.20157
rclavicle -6.21641e-014 -5.67468e-015
rhumerus -35.3156 0.873235 -88.2129
rradius 62.4536
rwrist -3.74547
rhand -28.9296 2.11493
rfingers 7.12502
rthumb -2.28371 -27.8526
lclavicle -6.21641e-014 -5.67468e-015
lhumerus -46.1724 4.45509 79.7251
lradius 40.2614
lwrist -16.2069
lhand -26.2026 -5.45726
lfingers 7.12502
lthumb 0.350042 24.5222
rfemur -16.7747 1.89146 20.6477
rtibia 39.3767
rfoot -21.8014 -11.0906
rtoes -19.2184
lfemur -23.5752 -3.68988 -19.8651
ltibia 47.163
lfoot -24.309 -2.84021
ltoes 9.81446
220
root -7.98505 17.7021 -23.8356 -175.753 -35.2088 -178.736
lowerback 9.74829 0.0565171 -3.15788
upperback -2.35115 -0.236547 1.21923
thorax -7.96006 0.0686342 3.11313
lowerneck -16.3651 -4.86572 -6.16827
upperneck 10.7973 -6.01206 5.7243
head 6.31351 -2.71733 2.20994
rclavicle -6.6602e-014 1.51653e-014
rhumerus -35.5722 1.05477 -88.5201
rradius 62.2882
rwrist -3.39455
rhand -28.8233 2.23537
rfingers 7.12502
rthumb -2.18108 -27.7332
lclavicle -6.6602e-014 1.51653e-014
lhumerus -46.3794 4.47712 79.6166
lradius 39.7239
lwrist -16.2336
lhand -26.0976 -5.32833
lfingers 7.12502
lthumb 0.451436 24.6509
rfemur -16.7268 1.98449 20.5482
rtibia 39.1278
rfoot -21.8703 -10.9765
rtoes -19.2131
lfemur -23.4298 -3.47085 -19.9494
ltibia 46.8765
lfoot -24.4496 -2.83692
ltoes 10.0187
221
root -8.02203 17.7115 -23.8917 -175.418 -34.9394 -178.844
lowerback 9.6462 0.0859889 -3.25696
upperback -2.36983 -0.207743 1.20543
thorax -7.92362 0.0866059 3.14888
lowerneck -16.3615 -4.82515 -6.14133
upperneck 10.7244 -5.96933 5.78075
head 6.28813 -2.69176 2.22882
rclavicle -6.94551e-014 -1.52288e-014
rhumerus -35.8162 1.24025 -88.8142
rradius 62.1147
rwrist -3.0636
rhand -28.7325 2.35346
rfingers 7.12502
rthumb -2.09337 -27.616
lclavicle -6.94551e-014 -1.52288e-014
lhumerus -46.5301 4.489 79.5515
lradius 39.2078
lwrist -16.2639
lhand -25.9397 -5.21442
lfingers 7.12502
lthumb 0.603959 24.7645
rfemur -16.6923 2.06544 20.4479
rtibia 38.9026
rfoot -21.9515 -10.8739
rtoes -19.2022
lfemur -23.2922 -3.24752 -20.0364
ltibia 46.5994
lfoot -24.5976 -2.84324
ltoes 10.1893
222
root -8.05786 17.7198 -23.9474 -175.079 -34.6885 -178.965
lowerback 9.55478 0.109659 -3.3652
upperback -2.38606 -0.18819 1.18816
thorax -7.89007 0.100435 3.18779
lowerneck -16.3601 -4.79277 -6.12622
upperneck 10.6595 -5.93624 5.84395
head 6.26684 -2.67076 2.25061
rclavicle -2.28478e-014 2.01269e-015
rhumerus -36.0566 1.43348 -89.1006
rradius 61.936
rwrist -2.75735
rhand -28.6491 2.45975
rfingers 7.12502
rthumb -2.0128 -27.5105
lclavicle -2.28478e-014 2.01269e-015
lhumerus -46.6447 4.48639 79.5273
lradius 38.7301
lwrist -16.3053
lhand -25.7571 -5.19537
lfingers 7.12502
lthumb 0.780388 24.7829
rfemur -16.667 2.1336 20.3379
rtibia 38.6991
rfoot -22.0442 -10.7863
rtoes -19.1941
lfemur -23.1609 -3.02412 -20.135
ltibia 46.331
lfoot -24.7472 -2.8648
ltoes 10.3303
